<svg width="13" height="8" viewBox="0 0 13 8" fill="none" xmlns="http://www.w3.org/2000/svg">
<path d="M5.44531 2.94531C5.74219 2.64844 6.09375 2.5 6.5 2.5C6.90625 2.5 7.25781 2.64844 7.55469 2.94531C7.85156 3.24219 8 3.59375 8 4C8 4.40625 7.85156 4.75781 7.55469 5.05469C7.25781 5.35156 6.90625 5.5 6.5 5.5C6.09375 5.5 5.74219 5.35156 5.44531 5.05469C5.14844 4.75781 5 4.40625 5 4C5 3.59375 5.14844 3.24219 5.44531 2.94531ZM4.71875 5.78125C5.21875 6.26562 5.8125 6.50781 6.5 6.50781C7.1875 6.50781 7.77344 6.26562 8.25781 5.78125C8.75781 5.28125 9.00781 4.6875 9.00781 4C9.00781 3.3125 8.75781 2.72656 8.25781 2.24219C7.77344 1.74219 7.1875 1.49219 6.5 1.49219C5.8125 1.49219 5.21875 1.74219 4.71875 2.24219C4.23438 2.72656 3.99219 3.3125 3.99219 4C3.99219 4.6875 4.23438 5.28125 4.71875 5.78125ZM3.14844 1.28125C4.14844 0.59375 5.26562 0.25 6.5 0.25C7.73438 0.25 8.85156 0.59375 9.85156 1.28125C10.8516 1.96875 11.5703 2.875 12.0078 4C11.5703 5.125 10.8516 6.03125 9.85156 6.71875C8.85156 7.40625 7.73438 7.75 6.5 7.75C5.26562 7.75 4.14844 7.40625 3.14844 6.71875C2.14844 6.03125 1.42969 5.125 0.992188 4C1.42969 2.875 2.14844 1.96875 3.14844 1.28125Z" fill="#00A3FF"/>
</svg>
